<svg xmlns="http://www.w3.org/2000/svg" viewBox="0 0 960 150" width="960" height="150" shape-rendering="crispEdges"><style>
.L{fill:#ff4b4b;animation:wave 6s steps(6) infinite}
@keyframes wave{0%,100%{fill:#ff4b4b}25%{fill:#ff5ed2}50%{fill:#ffe600}75%{fill:#b66bff}}
.bl{animation:bl 1.1s steps(1) infinite}
@keyframes bl{0%,54%{opacity:1}55%,100%{opacity:0}}
.tw{animation:tw 3s steps(2,end) infinite}
@keyframes tw{0%,55%{opacity:1}60%,95%{opacity:.12}100%{opacity:1}}
.bob{animation:bob 1s steps(2) infinite}
@keyframes bob{0%,49%{transform:translateY(0)}50%,100%{transform:translateY(-3px)}}
</style><defs><pattern id="scan" width="4" height="4" patternUnits="userSpaceOnUse"><rect width="4" height="2" fill="#000000" opacity="0.18"/></pattern></defs><rect width="960" height="150" fill="#0a0a14"/><rect class="tw" style="animation-delay:1.06s" x="210" y="24" width="2" height="2" fill="#9aa0b4"/><rect class="tw" style="animation-delay:0.18s" x="436" y="71" width="2" height="2" fill="#e8e8f0"/><rect class="tw" style="animation-delay:0.57s" x="761" y="55" width="2" height="2" fill="#00ffff"/><rect class="tw" style="animation-delay:0.55s" x="565" y="69" width="2" height="2" fill="#9aa0b4"/><rect class="tw" style="animation-delay:2.42s" x="489" y="43" width="2" height="2" fill="#9aa0b4"/><rect class="tw" style="animation-delay:1.96s" x="892" y="82" width="2" height="2" fill="#e8e8f0"/><rect class="tw" style="animation-delay:2.78s" x="569" y="119" width="2" height="2" fill="#e8e8f0"/><rect class="tw" style="animation-delay:1.46s" x="885" y="42" width="2" height="2" fill="#9aa0b4"/><rect class="tw" style="animation-delay:0.49s" x="234" y="122" width="3" height="3" fill="#e8e8f0"/><rect class="tw" style="animation-delay:0.86s" x="18" y="61" width="3" height="3" fill="#9aa0b4"/><rect class="tw" style="animation-delay:0.57s" x="729" y="105" width="3" height="3" fill="#00ffff"/><rect class="tw" style="animation-delay:0.17s" x="238" y="19" width="2" height="2" fill="#ff5ed2"/><rect class="tw" style="animation-delay:2.88s" x="614" y="73" width="2" height="2" fill="#e8e8f0"/><rect class="tw" style="animation-delay:1.79s" x="98" y="120" width="2" height="2" fill="#e8e8f0"/><rect class="tw" style="animation-delay:0.36s" x="707" y="122" width="2" height="2" fill="#9aa0b4"/><rect class="tw" style="animation-delay:1.86s" x="927" y="84" width="2" height="2" fill="#e8e8f0"/><rect class="tw" style="animation-delay:0.61s" x="445" y="96" width="3" height="3" fill="#ff5ed2"/><rect class="tw" style="animation-delay:1.19s" x="749" y="52" width="2" height="2" fill="#ff5ed2"/><rect class="tw" style="animation-delay:0.95s" x="703" y="94" width="3" height="3" fill="#9aa0b4"/><rect class="tw" style="animation-delay:1.86s" x="785" y="21" width="2" height="2" fill="#9aa0b4"/><rect class="tw" style="animation-delay:1.52s" x="592" y="24" width="2" height="2" fill="#00ffff"/><rect class="tw" style="animation-delay:1.11s" x="151" y="56" width="2" height="2" fill="#00ffff"/><rect class="tw" style="animation-delay:2.0s" x="177" y="68" width="3" height="3" fill="#e8e8f0"/><rect class="tw" style="animation-delay:0.79s" x="583" y="50" width="2" height="2" fill="#00ffff"/><g class="L" style="animation-delay:0.0s"><rect x="252" y="28" width="8" height="8"/><rect x="260" y="28" width="8" height="8"/><rect x="268" y="28" width="8" height="8"/><rect x="244" y="36" width="8" height="8"/><rect x="276" y="36" width="8" height="8"/><rect x="244" y="44" width="8" height="8"/><rect x="244" y="52" width="8" height="8"/><rect x="260" y="52" width="8" height="8"/><rect x="268" y="52" width="8" height="8"/><rect x="276" y="52" width="8" height="8"/><rect x="244" y="60" width="8" height="8"/><rect x="276" y="60" width="8" height="8"/><rect x="244" y="68" width="8" height="8"/><rect x="276" y="68" width="8" height="8"/><rect x="252" y="76" width="8" height="8"/><rect x="260" y="76" width="8" height="8"/><rect x="268" y="76" width="8" height="8"/></g><g class="L" style="animation-delay:0.3s"><rect x="300" y="28" width="8" height="8"/><rect x="308" y="28" width="8" height="8"/><rect x="316" y="28" width="8" height="8"/><rect x="292" y="36" width="8" height="8"/><rect x="324" y="36" width="8" height="8"/><rect x="292" y="44" width="8" height="8"/><rect x="324" y="44" width="8" height="8"/><rect x="292" y="52" width="8" height="8"/><rect x="300" y="52" width="8" height="8"/><rect x="308" y="52" width="8" height="8"/><rect x="316" y="52" width="8" height="8"/><rect x="324" y="52" width="8" height="8"/><rect x="292" y="60" width="8" height="8"/><rect x="324" y="60" width="8" height="8"/><rect x="292" y="68" width="8" height="8"/><rect x="324" y="68" width="8" height="8"/><rect x="292" y="76" width="8" height="8"/><rect x="324" y="76" width="8" height="8"/></g><g class="L" style="animation-delay:0.6s"><rect x="340" y="28" width="8" height="8"/><rect x="372" y="28" width="8" height="8"/><rect x="340" y="36" width="8" height="8"/><rect x="348" y="36" width="8" height="8"/><rect x="364" y="36" width="8" height="8"/><rect x="372" y="36" width="8" height="8"/><rect x="340" y="44" width="8" height="8"/><rect x="356" y="44" width="8" height="8"/><rect x="372" y="44" width="8" height="8"/><rect x="340" y="52" width="8" height="8"/><rect x="356" y="52" width="8" height="8"/><rect x="372" y="52" width="8" height="8"/><rect x="340" y="60" width="8" height="8"/><rect x="372" y="60" width="8" height="8"/><rect x="340" y="68" width="8" height="8"/><rect x="372" y="68" width="8" height="8"/><rect x="340" y="76" width="8" height="8"/><rect x="372" y="76" width="8" height="8"/></g><g class="L" style="animation-delay:0.9s"><rect x="388" y="28" width="8" height="8"/><rect x="396" y="28" width="8" height="8"/><rect x="404" y="28" width="8" height="8"/><rect x="412" y="28" width="8" height="8"/><rect x="420" y="28" width="8" height="8"/><rect x="388" y="36" width="8" height="8"/><rect x="388" y="44" width="8" height="8"/><rect x="388" y="52" width="8" height="8"/><rect x="396" y="52" width="8" height="8"/><rect x="404" y="52" width="8" height="8"/><rect x="412" y="52" width="8" height="8"/><rect x="388" y="60" width="8" height="8"/><rect x="388" y="68" width="8" height="8"/><rect x="388" y="76" width="8" height="8"/><rect x="396" y="76" width="8" height="8"/><rect x="404" y="76" width="8" height="8"/><rect x="412" y="76" width="8" height="8"/><rect x="420" y="76" width="8" height="8"/></g><g class="L" style="animation-delay:1.2s"></g><g class="L" style="animation-delay:1.5s"><rect x="492" y="28" width="8" height="8"/><rect x="500" y="28" width="8" height="8"/><rect x="508" y="28" width="8" height="8"/><rect x="484" y="36" width="8" height="8"/><rect x="516" y="36" width="8" height="8"/><rect x="484" y="44" width="8" height="8"/><rect x="516" y="44" width="8" height="8"/><rect x="484" y="52" width="8" height="8"/><rect x="516" y="52" width="8" height="8"/><rect x="484" y="60" width="8" height="8"/><rect x="516" y="60" width="8" height="8"/><rect x="484" y="68" width="8" height="8"/><rect x="516" y="68" width="8" height="8"/><rect x="492" y="76" width="8" height="8"/><rect x="500" y="76" width="8" height="8"/><rect x="508" y="76" width="8" height="8"/></g><g class="L" style="animation-delay:1.8s"><rect x="532" y="28" width="8" height="8"/><rect x="564" y="28" width="8" height="8"/><rect x="532" y="36" width="8" height="8"/><rect x="564" y="36" width="8" height="8"/><rect x="532" y="44" width="8" height="8"/><rect x="564" y="44" width="8" height="8"/><rect x="532" y="52" width="8" height="8"/><rect x="564" y="52" width="8" height="8"/><rect x="532" y="60" width="8" height="8"/><rect x="564" y="60" width="8" height="8"/><rect x="540" y="68" width="8" height="8"/><rect x="556" y="68" width="8" height="8"/><rect x="548" y="76" width="8" height="8"/></g><g class="L" style="animation-delay:2.1s"><rect x="580" y="28" width="8" height="8"/><rect x="588" y="28" width="8" height="8"/><rect x="596" y="28" width="8" height="8"/><rect x="604" y="28" width="8" height="8"/><rect x="612" y="28" width="8" height="8"/><rect x="580" y="36" width="8" height="8"/><rect x="580" y="44" width="8" height="8"/><rect x="580" y="52" width="8" height="8"/><rect x="588" y="52" width="8" height="8"/><rect x="596" y="52" width="8" height="8"/><rect x="604" y="52" width="8" height="8"/><rect x="580" y="60" width="8" height="8"/><rect x="580" y="68" width="8" height="8"/><rect x="580" y="76" width="8" height="8"/><rect x="588" y="76" width="8" height="8"/><rect x="596" y="76" width="8" height="8"/><rect x="604" y="76" width="8" height="8"/><rect x="612" y="76" width="8" height="8"/></g><g class="L" style="animation-delay:2.4s"><rect x="628" y="28" width="8" height="8"/><rect x="636" y="28" width="8" height="8"/><rect x="644" y="28" width="8" height="8"/><rect x="652" y="28" width="8" height="8"/><rect x="628" y="36" width="8" height="8"/><rect x="660" y="36" width="8" height="8"/><rect x="628" y="44" width="8" height="8"/><rect x="660" y="44" width="8" height="8"/><rect x="628" y="52" width="8" height="8"/><rect x="636" y="52" width="8" height="8"/><rect x="644" y="52" width="8" height="8"/><rect x="652" y="52" width="8" height="8"/><rect x="628" y="60" width="8" height="8"/><rect x="644" y="60" width="8" height="8"/><rect x="628" y="68" width="8" height="8"/><rect x="652" y="68" width="8" height="8"/><rect x="628" y="76" width="8" height="8"/><rect x="660" y="76" width="8" height="8"/></g><g class="L" style="animation-delay:2.7s"><rect x="684" y="28" width="8" height="8"/><rect x="692" y="28" width="8" height="8"/><rect x="700" y="28" width="8" height="8"/><rect x="676" y="36" width="8" height="8"/><rect x="708" y="36" width="8" height="8"/><rect x="708" y="44" width="8" height="8"/><rect x="700" y="52" width="8" height="8"/><rect x="692" y="60" width="8" height="8"/><rect x="692" y="76" width="8" height="8"/></g><g class="bl"><rect x="292" y="104" width="3" height="3" fill="#e8e8f0"/><rect x="295" y="104" width="3" height="3" fill="#e8e8f0"/><rect x="298" y="104" width="3" height="3" fill="#e8e8f0"/><rect x="301" y="104" width="3" height="3" fill="#e8e8f0"/><rect x="292" y="107" width="3" height="3" fill="#e8e8f0"/><rect x="304" y="107" width="3" height="3" fill="#e8e8f0"/><rect x="292" y="110" width="3" height="3" fill="#e8e8f0"/><rect x="304" y="110" width="3" height="3" fill="#e8e8f0"/><rect x="292" y="113" width="3" height="3" fill="#e8e8f0"/><rect x="295" y="113" width="3" height="3" fill="#e8e8f0"/><rect x="298" y="113" width="3" height="3" fill="#e8e8f0"/><rect x="301" y="113" width="3" height="3" fill="#e8e8f0"/><rect x="292" y="116" width="3" height="3" fill="#e8e8f0"/><rect x="292" y="119" width="3" height="3" fill="#e8e8f0"/><rect x="292" y="122" width="3" height="3" fill="#e8e8f0"/><rect x="310" y="104" width="3" height="3" fill="#e8e8f0"/><rect x="313" y="104" width="3" height="3" fill="#e8e8f0"/><rect x="316" y="104" width="3" height="3" fill="#e8e8f0"/><rect x="319" y="104" width="3" height="3" fill="#e8e8f0"/><rect x="310" y="107" width="3" height="3" fill="#e8e8f0"/><rect x="322" y="107" width="3" height="3" fill="#e8e8f0"/><rect x="310" y="110" width="3" height="3" fill="#e8e8f0"/><rect x="322" y="110" width="3" height="3" fill="#e8e8f0"/><rect x="310" y="113" width="3" height="3" fill="#e8e8f0"/><rect x="313" y="113" width="3" height="3" fill="#e8e8f0"/><rect x="316" y="113" width="3" height="3" fill="#e8e8f0"/><rect x="319" y="113" width="3" height="3" fill="#e8e8f0"/><rect x="310" y="116" width="3" height="3" fill="#e8e8f0"/><rect x="316" y="116" width="3" height="3" fill="#e8e8f0"/><rect x="310" y="119" width="3" height="3" fill="#e8e8f0"/><rect x="319" y="119" width="3" height="3" fill="#e8e8f0"/><rect x="310" y="122" width="3" height="3" fill="#e8e8f0"/><rect x="322" y="122" width="3" height="3" fill="#e8e8f0"/><rect x="328" y="104" width="3" height="3" fill="#e8e8f0"/><rect x="331" y="104" width="3" height="3" fill="#e8e8f0"/><rect x="334" y="104" width="3" height="3" fill="#e8e8f0"/><rect x="337" y="104" width="3" height="3" fill="#e8e8f0"/><rect x="340" y="104" width="3" height="3" fill="#e8e8f0"/><rect x="328" y="107" width="3" height="3" fill="#e8e8f0"/><rect x="328" y="110" width="3" height="3" fill="#e8e8f0"/><rect x="328" y="113" width="3" height="3" fill="#e8e8f0"/><rect x="331" y="113" width="3" height="3" fill="#e8e8f0"/><rect x="334" y="113" width="3" height="3" fill="#e8e8f0"/><rect x="337" y="113" width="3" height="3" fill="#e8e8f0"/><rect x="328" y="116" width="3" height="3" fill="#e8e8f0"/><rect x="328" y="119" width="3" height="3" fill="#e8e8f0"/><rect x="328" y="122" width="3" height="3" fill="#e8e8f0"/><rect x="331" y="122" width="3" height="3" fill="#e8e8f0"/><rect x="334" y="122" width="3" height="3" fill="#e8e8f0"/><rect x="337" y="122" width="3" height="3" fill="#e8e8f0"/><rect x="340" y="122" width="3" height="3" fill="#e8e8f0"/><rect x="349" y="104" width="3" height="3" fill="#e8e8f0"/><rect x="352" y="104" width="3" height="3" fill="#e8e8f0"/><rect x="355" y="104" width="3" height="3" fill="#e8e8f0"/><rect x="358" y="104" width="3" height="3" fill="#e8e8f0"/><rect x="346" y="107" width="3" height="3" fill="#e8e8f0"/><rect x="346" y="110" width="3" height="3" fill="#e8e8f0"/><rect x="349" y="113" width="3" height="3" fill="#e8e8f0"/><rect x="352" y="113" width="3" height="3" fill="#e8e8f0"/><rect x="355" y="113" width="3" height="3" fill="#e8e8f0"/><rect x="358" y="116" width="3" height="3" fill="#e8e8f0"/><rect x="358" y="119" width="3" height="3" fill="#e8e8f0"/><rect x="346" y="122" width="3" height="3" fill="#e8e8f0"/><rect x="349" y="122" width="3" height="3" fill="#e8e8f0"/><rect x="352" y="122" width="3" height="3" fill="#e8e8f0"/><rect x="355" y="122" width="3" height="3" fill="#e8e8f0"/><rect x="367" y="104" width="3" height="3" fill="#e8e8f0"/><rect x="370" y="104" width="3" height="3" fill="#e8e8f0"/><rect x="373" y="104" width="3" height="3" fill="#e8e8f0"/><rect x="376" y="104" width="3" height="3" fill="#e8e8f0"/><rect x="364" y="107" width="3" height="3" fill="#e8e8f0"/><rect x="364" y="110" width="3" height="3" fill="#e8e8f0"/><rect x="367" y="113" width="3" height="3" fill="#e8e8f0"/><rect x="370" y="113" width="3" height="3" fill="#e8e8f0"/><rect x="373" y="113" width="3" height="3" fill="#e8e8f0"/><rect x="376" y="116" width="3" height="3" fill="#e8e8f0"/><rect x="376" y="119" width="3" height="3" fill="#e8e8f0"/><rect x="364" y="122" width="3" height="3" fill="#e8e8f0"/><rect x="367" y="122" width="3" height="3" fill="#e8e8f0"/><rect x="370" y="122" width="3" height="3" fill="#e8e8f0"/><rect x="373" y="122" width="3" height="3" fill="#e8e8f0"/><rect x="403" y="104" width="3" height="3" fill="#e8e8f0"/><rect x="406" y="104" width="3" height="3" fill="#e8e8f0"/><rect x="409" y="104" width="3" height="3" fill="#e8e8f0"/><rect x="412" y="104" width="3" height="3" fill="#e8e8f0"/><rect x="400" y="107" width="3" height="3" fill="#e8e8f0"/><rect x="400" y="110" width="3" height="3" fill="#e8e8f0"/><rect x="403" y="113" width="3" height="3" fill="#e8e8f0"/><rect x="406" y="113" width="3" height="3" fill="#e8e8f0"/><rect x="409" y="113" width="3" height="3" fill="#e8e8f0"/><rect x="412" y="116" width="3" height="3" fill="#e8e8f0"/><rect x="412" y="119" width="3" height="3" fill="#e8e8f0"/><rect x="400" y="122" width="3" height="3" fill="#e8e8f0"/><rect x="403" y="122" width="3" height="3" fill="#e8e8f0"/><rect x="406" y="122" width="3" height="3" fill="#e8e8f0"/><rect x="409" y="122" width="3" height="3" fill="#e8e8f0"/><rect x="418" y="104" width="3" height="3" fill="#e8e8f0"/><rect x="421" y="104" width="3" height="3" fill="#e8e8f0"/><rect x="424" y="104" width="3" height="3" fill="#e8e8f0"/><rect x="427" y="104" width="3" height="3" fill="#e8e8f0"/><rect x="430" y="104" width="3" height="3" fill="#e8e8f0"/><rect x="424" y="107" width="3" height="3" fill="#e8e8f0"/><rect x="424" y="110" width="3" height="3" fill="#e8e8f0"/><rect x="424" y="113" width="3" height="3" fill="#e8e8f0"/><rect x="424" y="116" width="3" height="3" fill="#e8e8f0"/><rect x="424" y="119" width="3" height="3" fill="#e8e8f0"/><rect x="424" y="122" width="3" height="3" fill="#e8e8f0"/><rect x="439" y="104" width="3" height="3" fill="#e8e8f0"/><rect x="442" y="104" width="3" height="3" fill="#e8e8f0"/><rect x="445" y="104" width="3" height="3" fill="#e8e8f0"/><rect x="436" y="107" width="3" height="3" fill="#e8e8f0"/><rect x="448" y="107" width="3" height="3" fill="#e8e8f0"/><rect x="436" y="110" width="3" height="3" fill="#e8e8f0"/><rect x="448" y="110" width="3" height="3" fill="#e8e8f0"/><rect x="436" y="113" width="3" height="3" fill="#e8e8f0"/><rect x="439" y="113" width="3" height="3" fill="#e8e8f0"/><rect x="442" y="113" width="3" height="3" fill="#e8e8f0"/><rect x="445" y="113" width="3" height="3" fill="#e8e8f0"/><rect x="448" y="113" width="3" height="3" fill="#e8e8f0"/><rect x="436" y="116" width="3" height="3" fill="#e8e8f0"/><rect x="448" y="116" width="3" height="3" fill="#e8e8f0"/><rect x="436" y="119" width="3" height="3" fill="#e8e8f0"/><rect x="448" y="119" width="3" height="3" fill="#e8e8f0"/><rect x="436" y="122" width="3" height="3" fill="#e8e8f0"/><rect x="448" y="122" width="3" height="3" fill="#e8e8f0"/><rect x="454" y="104" width="3" height="3" fill="#e8e8f0"/><rect x="457" y="104" width="3" height="3" fill="#e8e8f0"/><rect x="460" y="104" width="3" height="3" fill="#e8e8f0"/><rect x="463" y="104" width="3" height="3" fill="#e8e8f0"/><rect x="454" y="107" width="3" height="3" fill="#e8e8f0"/><rect x="466" y="107" width="3" height="3" fill="#e8e8f0"/><rect x="454" y="110" width="3" height="3" fill="#e8e8f0"/><rect x="466" y="110" width="3" height="3" fill="#e8e8f0"/><rect x="454" y="113" width="3" height="3" fill="#e8e8f0"/><rect x="457" y="113" width="3" height="3" fill="#e8e8f0"/><rect x="460" y="113" width="3" height="3" fill="#e8e8f0"/><rect x="463" y="113" width="3" height="3" fill="#e8e8f0"/><rect x="454" y="116" width="3" height="3" fill="#e8e8f0"/><rect x="460" y="116" width="3" height="3" fill="#e8e8f0"/><rect x="454" y="119" width="3" height="3" fill="#e8e8f0"/><rect x="463" y="119" width="3" height="3" fill="#e8e8f0"/><rect x="454" y="122" width="3" height="3" fill="#e8e8f0"/><rect x="466" y="122" width="3" height="3" fill="#e8e8f0"/><rect x="472" y="104" width="3" height="3" fill="#e8e8f0"/><rect x="475" y="104" width="3" height="3" fill="#e8e8f0"/><rect x="478" y="104" width="3" height="3" fill="#e8e8f0"/><rect x="481" y="104" width="3" height="3" fill="#e8e8f0"/><rect x="484" y="104" width="3" height="3" fill="#e8e8f0"/><rect x="478" y="107" width="3" height="3" fill="#e8e8f0"/><rect x="478" y="110" width="3" height="3" fill="#e8e8f0"/><rect x="478" y="113" width="3" height="3" fill="#e8e8f0"/><rect x="478" y="116" width="3" height="3" fill="#e8e8f0"/><rect x="478" y="119" width="3" height="3" fill="#e8e8f0"/><rect x="478" y="122" width="3" height="3" fill="#e8e8f0"/><rect x="508" y="104" width="3" height="3" fill="#e8e8f0"/><rect x="511" y="104" width="3" height="3" fill="#e8e8f0"/><rect x="514" y="104" width="3" height="3" fill="#e8e8f0"/><rect x="517" y="104" width="3" height="3" fill="#e8e8f0"/><rect x="520" y="104" width="3" height="3" fill="#e8e8f0"/><rect x="514" y="107" width="3" height="3" fill="#e8e8f0"/><rect x="514" y="110" width="3" height="3" fill="#e8e8f0"/><rect x="514" y="113" width="3" height="3" fill="#e8e8f0"/><rect x="514" y="116" width="3" height="3" fill="#e8e8f0"/><rect x="514" y="119" width="3" height="3" fill="#e8e8f0"/><rect x="514" y="122" width="3" height="3" fill="#e8e8f0"/><rect x="529" y="104" width="3" height="3" fill="#e8e8f0"/><rect x="532" y="104" width="3" height="3" fill="#e8e8f0"/><rect x="535" y="104" width="3" height="3" fill="#e8e8f0"/><rect x="526" y="107" width="3" height="3" fill="#e8e8f0"/><rect x="538" y="107" width="3" height="3" fill="#e8e8f0"/><rect x="526" y="110" width="3" height="3" fill="#e8e8f0"/><rect x="538" y="110" width="3" height="3" fill="#e8e8f0"/><rect x="526" y="113" width="3" height="3" fill="#e8e8f0"/><rect x="538" y="113" width="3" height="3" fill="#e8e8f0"/><rect x="526" y="116" width="3" height="3" fill="#e8e8f0"/><rect x="538" y="116" width="3" height="3" fill="#e8e8f0"/><rect x="526" y="119" width="3" height="3" fill="#e8e8f0"/><rect x="538" y="119" width="3" height="3" fill="#e8e8f0"/><rect x="529" y="122" width="3" height="3" fill="#e8e8f0"/><rect x="532" y="122" width="3" height="3" fill="#e8e8f0"/><rect x="535" y="122" width="3" height="3" fill="#e8e8f0"/><rect x="565" y="104" width="3" height="3" fill="#e8e8f0"/><rect x="568" y="104" width="3" height="3" fill="#e8e8f0"/><rect x="571" y="104" width="3" height="3" fill="#e8e8f0"/><rect x="562" y="107" width="3" height="3" fill="#e8e8f0"/><rect x="574" y="107" width="3" height="3" fill="#e8e8f0"/><rect x="562" y="110" width="3" height="3" fill="#e8e8f0"/><rect x="562" y="113" width="3" height="3" fill="#e8e8f0"/><rect x="562" y="116" width="3" height="3" fill="#e8e8f0"/><rect x="562" y="119" width="3" height="3" fill="#e8e8f0"/><rect x="574" y="119" width="3" height="3" fill="#e8e8f0"/><rect x="565" y="122" width="3" height="3" fill="#e8e8f0"/><rect x="568" y="122" width="3" height="3" fill="#e8e8f0"/><rect x="571" y="122" width="3" height="3" fill="#e8e8f0"/><rect x="583" y="104" width="3" height="3" fill="#e8e8f0"/><rect x="586" y="104" width="3" height="3" fill="#e8e8f0"/><rect x="589" y="104" width="3" height="3" fill="#e8e8f0"/><rect x="580" y="107" width="3" height="3" fill="#e8e8f0"/><rect x="592" y="107" width="3" height="3" fill="#e8e8f0"/><rect x="580" y="110" width="3" height="3" fill="#e8e8f0"/><rect x="592" y="110" width="3" height="3" fill="#e8e8f0"/><rect x="580" y="113" width="3" height="3" fill="#e8e8f0"/><rect x="592" y="113" width="3" height="3" fill="#e8e8f0"/><rect x="580" y="116" width="3" height="3" fill="#e8e8f0"/><rect x="592" y="116" width="3" height="3" fill="#e8e8f0"/><rect x="580" y="119" width="3" height="3" fill="#e8e8f0"/><rect x="592" y="119" width="3" height="3" fill="#e8e8f0"/><rect x="583" y="122" width="3" height="3" fill="#e8e8f0"/><rect x="586" y="122" width="3" height="3" fill="#e8e8f0"/><rect x="589" y="122" width="3" height="3" fill="#e8e8f0"/><rect x="598" y="104" width="3" height="3" fill="#e8e8f0"/><rect x="598" y="107" width="3" height="3" fill="#e8e8f0"/><rect x="598" y="110" width="3" height="3" fill="#e8e8f0"/><rect x="598" y="113" width="3" height="3" fill="#e8e8f0"/><rect x="598" y="116" width="3" height="3" fill="#e8e8f0"/><rect x="598" y="119" width="3" height="3" fill="#e8e8f0"/><rect x="598" y="122" width="3" height="3" fill="#e8e8f0"/><rect x="601" y="122" width="3" height="3" fill="#e8e8f0"/><rect x="604" y="122" width="3" height="3" fill="#e8e8f0"/><rect x="607" y="122" width="3" height="3" fill="#e8e8f0"/><rect x="610" y="122" width="3" height="3" fill="#e8e8f0"/><rect x="616" y="104" width="3" height="3" fill="#e8e8f0"/><rect x="616" y="107" width="3" height="3" fill="#e8e8f0"/><rect x="616" y="110" width="3" height="3" fill="#e8e8f0"/><rect x="616" y="113" width="3" height="3" fill="#e8e8f0"/><rect x="616" y="116" width="3" height="3" fill="#e8e8f0"/><rect x="616" y="119" width="3" height="3" fill="#e8e8f0"/><rect x="616" y="122" width="3" height="3" fill="#e8e8f0"/><rect x="619" y="122" width="3" height="3" fill="#e8e8f0"/><rect x="622" y="122" width="3" height="3" fill="#e8e8f0"/><rect x="625" y="122" width="3" height="3" fill="#e8e8f0"/><rect x="628" y="122" width="3" height="3" fill="#e8e8f0"/><rect x="637" y="104" width="3" height="3" fill="#e8e8f0"/><rect x="640" y="104" width="3" height="3" fill="#e8e8f0"/><rect x="643" y="104" width="3" height="3" fill="#e8e8f0"/><rect x="634" y="107" width="3" height="3" fill="#e8e8f0"/><rect x="646" y="107" width="3" height="3" fill="#e8e8f0"/><rect x="634" y="110" width="3" height="3" fill="#e8e8f0"/><rect x="646" y="110" width="3" height="3" fill="#e8e8f0"/><rect x="634" y="113" width="3" height="3" fill="#e8e8f0"/><rect x="637" y="113" width="3" height="3" fill="#e8e8f0"/><rect x="640" y="113" width="3" height="3" fill="#e8e8f0"/><rect x="643" y="113" width="3" height="3" fill="#e8e8f0"/><rect x="646" y="113" width="3" height="3" fill="#e8e8f0"/><rect x="634" y="116" width="3" height="3" fill="#e8e8f0"/><rect x="646" y="116" width="3" height="3" fill="#e8e8f0"/><rect x="634" y="119" width="3" height="3" fill="#e8e8f0"/><rect x="646" y="119" width="3" height="3" fill="#e8e8f0"/><rect x="634" y="122" width="3" height="3" fill="#e8e8f0"/><rect x="646" y="122" width="3" height="3" fill="#e8e8f0"/><rect x="652" y="104" width="3" height="3" fill="#e8e8f0"/><rect x="655" y="104" width="3" height="3" fill="#e8e8f0"/><rect x="658" y="104" width="3" height="3" fill="#e8e8f0"/><rect x="661" y="104" width="3" height="3" fill="#e8e8f0"/><rect x="652" y="107" width="3" height="3" fill="#e8e8f0"/><rect x="664" y="107" width="3" height="3" fill="#e8e8f0"/><rect x="652" y="110" width="3" height="3" fill="#e8e8f0"/><rect x="664" y="110" width="3" height="3" fill="#e8e8f0"/><rect x="652" y="113" width="3" height="3" fill="#e8e8f0"/><rect x="655" y="113" width="3" height="3" fill="#e8e8f0"/><rect x="658" y="113" width="3" height="3" fill="#e8e8f0"/><rect x="661" y="113" width="3" height="3" fill="#e8e8f0"/><rect x="652" y="116" width="3" height="3" fill="#e8e8f0"/><rect x="664" y="116" width="3" height="3" fill="#e8e8f0"/><rect x="652" y="119" width="3" height="3" fill="#e8e8f0"/><rect x="664" y="119" width="3" height="3" fill="#e8e8f0"/><rect x="652" y="122" width="3" height="3" fill="#e8e8f0"/><rect x="655" y="122" width="3" height="3" fill="#e8e8f0"/><rect x="658" y="122" width="3" height="3" fill="#e8e8f0"/><rect x="661" y="122" width="3" height="3" fill="#e8e8f0"/></g><g class="bob"><g transform="translate(60,96)"><rect x="6" y="0" width="3" height="3" fill="#00ffff"/><rect x="21" y="0" width="3" height="3" fill="#00ffff"/><rect x="9" y="3" width="3" height="3" fill="#00ffff"/><rect x="18" y="3" width="3" height="3" fill="#00ffff"/><rect x="6" y="6" width="3" height="3" fill="#00ffff"/><rect x="9" y="6" width="3" height="3" fill="#00ffff"/><rect x="12" y="6" width="3" height="3" fill="#00ffff"/><rect x="15" y="6" width="3" height="3" fill="#00ffff"/><rect x="18" y="6" width="3" height="3" fill="#00ffff"/><rect x="21" y="6" width="3" height="3" fill="#00ffff"/><rect x="3" y="9" width="3" height="3" fill="#00ffff"/><rect x="6" y="9" width="3" height="3" fill="#00ffff"/><rect x="9" y="9" width="3" height="3" fill="#00ffff"/><rect x="12" y="9" width="3" height="3" fill="#00ffff"/><rect x="15" y="9" width="3" height="3" fill="#00ffff"/><rect x="18" y="9" width="3" height="3" fill="#00ffff"/><rect x="21" y="9" width="3" height="3" fill="#00ffff"/><rect x="24" y="9" width="3" height="3" fill="#00ffff"/><rect x="3" y="12" width="3" height="3" fill="#00ffff"/><rect x="6" y="12" width="3" height="3" fill="#0a0a14"/><rect x="9" y="12" width="3" height="3" fill="#00ffff"/><rect x="12" y="12" width="3" height="3" fill="#00ffff"/><rect x="15" y="12" width="3" height="3" fill="#00ffff"/><rect x="18" y="12" width="3" height="3" fill="#00ffff"/><rect x="21" y="12" width="3" height="3" fill="#0a0a14"/><rect x="24" y="12" width="3" height="3" fill="#00ffff"/><rect x="3" y="15" width="3" height="3" fill="#00ffff"/><rect x="6" y="15" width="3" height="3" fill="#00ffff"/><rect x="9" y="15" width="3" height="3" fill="#00ffff"/><rect x="12" y="15" width="3" height="3" fill="#00ffff"/><rect x="15" y="15" width="3" height="3" fill="#00ffff"/><rect x="18" y="15" width="3" height="3" fill="#00ffff"/><rect x="21" y="15" width="3" height="3" fill="#00ffff"/><rect x="24" y="15" width="3" height="3" fill="#00ffff"/><rect x="6" y="18" width="3" height="3" fill="#00ffff"/><rect x="12" y="18" width="3" height="3" fill="#00ffff"/><rect x="15" y="18" width="3" height="3" fill="#00ffff"/><rect x="21" y="18" width="3" height="3" fill="#00ffff"/><rect x="3" y="21" width="3" height="3" fill="#00ffff"/><rect x="24" y="21" width="3" height="3" fill="#00ffff"/></g></g><g class="bob" style="animation-delay:.5s"><g transform="translate(870,96)"><rect x="6" y="0" width="3" height="3" fill="#ff5ed2"/><rect x="21" y="0" width="3" height="3" fill="#ff5ed2"/><rect x="9" y="3" width="3" height="3" fill="#ff5ed2"/><rect x="18" y="3" width="3" height="3" fill="#ff5ed2"/><rect x="6" y="6" width="3" height="3" fill="#ff5ed2"/><rect x="9" y="6" width="3" height="3" fill="#ff5ed2"/><rect x="12" y="6" width="3" height="3" fill="#ff5ed2"/><rect x="15" y="6" width="3" height="3" fill="#ff5ed2"/><rect x="18" y="6" width="3" height="3" fill="#ff5ed2"/><rect x="21" y="6" width="3" height="3" fill="#ff5ed2"/><rect x="3" y="9" width="3" height="3" fill="#ff5ed2"/><rect x="6" y="9" width="3" height="3" fill="#ff5ed2"/><rect x="9" y="9" width="3" height="3" fill="#ff5ed2"/><rect x="12" y="9" width="3" height="3" fill="#ff5ed2"/><rect x="15" y="9" width="3" height="3" fill="#ff5ed2"/><rect x="18" y="9" width="3" height="3" fill="#ff5ed2"/><rect x="21" y="9" width="3" height="3" fill="#ff5ed2"/><rect x="24" y="9" width="3" height="3" fill="#ff5ed2"/><rect x="3" y="12" width="3" height="3" fill="#ff5ed2"/><rect x="6" y="12" width="3" height="3" fill="#0a0a14"/><rect x="9" y="12" width="3" height="3" fill="#ff5ed2"/><rect x="12" y="12" width="3" height="3" fill="#ff5ed2"/><rect x="15" y="12" width="3" height="3" fill="#ff5ed2"/><rect x="18" y="12" width="3" height="3" fill="#ff5ed2"/><rect x="21" y="12" width="3" height="3" fill="#0a0a14"/><rect x="24" y="12" width="3" height="3" fill="#ff5ed2"/><rect x="3" y="15" width="3" height="3" fill="#ff5ed2"/><rect x="6" y="15" width="3" height="3" fill="#ff5ed2"/><rect x="9" y="15" width="3" height="3" fill="#ff5ed2"/><rect x="12" y="15" width="3" height="3" fill="#ff5ed2"/><rect x="15" y="15" width="3" height="3" fill="#ff5ed2"/><rect x="18" y="15" width="3" height="3" fill="#ff5ed2"/><rect x="21" y="15" width="3" height="3" fill="#ff5ed2"/><rect x="24" y="15" width="3" height="3" fill="#ff5ed2"/><rect x="6" y="18" width="3" height="3" fill="#ff5ed2"/><rect x="12" y="18" width="3" height="3" fill="#ff5ed2"/><rect x="15" y="18" width="3" height="3" fill="#ff5ed2"/><rect x="21" y="18" width="3" height="3" fill="#ff5ed2"/><rect x="3" y="21" width="3" height="3" fill="#ff5ed2"/><rect x="24" y="21" width="3" height="3" fill="#ff5ed2"/></g></g><rect width="960" height="150" fill="url(#scan)"/><rect x="0" y="0" width="960" height="4" fill="#141432"/><rect x="0" y="146" width="960" height="4" fill="#141432"/><rect x="0" y="0" width="4" height="150" fill="#141432"/><rect x="956" y="0" width="4" height="150" fill="#141432"/><rect x="8" y="8" width="8" height="8" fill="#ff4b4b"/><rect x="944" y="8" width="8" height="8" fill="#ff4b4b"/><rect x="8" y="134" width="8" height="8" fill="#ff4b4b"/><rect x="944" y="134" width="8" height="8" fill="#ff4b4b"/></svg>